<?xml version="1.0" encoding="UTF-8"?>
<svg xmlns="http://www.w3.org/2000/svg" version="1.1" viewBox="0 0 549 661.1">
  <defs>
    <style>
      .cls-1 {
        fill: #f7cd29;
      }
    </style>
  </defs>
  <!-- Generator: Adobe Illustrator 28.7.1, SVG Export Plug-In . SVG Version: 1.2.0 Build 142)  -->
  <g>
    <g id="Camada_1">
      <g id="Camada_1-2" data-name="Camada_1">
        <g id="Camada_1-2">
          <g>
            <path class="cls-1" d="M354.7,108h-49.1c-12.6,0-18.6-4.6-18.6-18.6v-21.2H98.7c-21.9,0-30.8,9.9-30.9,34.9-.2,95.7,0,191.3,0,287v168.7c0,28.8,9,36.4,38.2,36.5,52.5.3,159.8,0,159.8,0l-.2,65.7H85.6C20.3,661,0,615.1,0,555.8c0-84.9,0-383,0-448.1C.1,73.7,10.1,44.5,37.6,21.5,57.8,4.5,80.4.2,102.4.2h233.9c13.5,0,18.4,5.9,18.4,18.6v89.3h0Z"/>
            <path class="cls-1" d="M302.1,661.1v-229.3h67.6v130.5c0,31.4.2,32.9,31,33h51c17.7,0,28.6-10.7,28.6-29.9-.2-162.8-.2-497.2-.2-497.2h-91.6V18.7c0-12.7,5.9-18.6,18.6-18.6h122.6c12.7,0,18.4,5.7,18.5,19.5,0,78.1.6,437.4.6,538.9s-59.1,102.2-93,102.2c-52,0-153.6.4-153.6.4h0Z"/>
          </g>
        </g>
      </g>
    </g>
  </g>
</svg>